<?xml version="1.0" encoding="UTF-8" standalone="no"?>
<svg
   xmlns:dc="http://purl.org/dc/elements/1.1/"
   xmlns:cc="http://creativecommons.org/ns#"
   xmlns:rdf="http://www.w3.org/1999/02/22-rdf-syntax-ns#"
   xmlns:svg="http://www.w3.org/2000/svg"
   xmlns="http://www.w3.org/2000/svg"
   xmlns:sodipodi="http://sodipodi.sourceforge.net/DTD/sodipodi-0.dtd"
   xmlns:inkscape="http://www.inkscape.org/namespaces/inkscape"
   width="1024"
   height="737"
   id="svg3788"
   version="1.1"
   inkscape:version="1.0.1 (3bc2e813f5, 2020-09-07)"
   sodipodi:docname="American_Horror_Story.svg">
  <defs
     id="defs3790" />
  <sodipodi:namedview
     id="base"
     pagecolor="#ffffff"
     bordercolor="#666666"
     borderopacity="1.0"
     inkscape:pageopacity="0.0"
     inkscape:pageshadow="2"
     inkscape:zoom="1.4"
     inkscape:cx="501.75036"
     inkscape:cy="232.36992"
     inkscape:document-units="px"
     inkscape:current-layer="capa1"
     showgrid="false"
     inkscape:window-width="3840"
     inkscape:window-height="2066"
     inkscape:window-x="-11"
     inkscape:window-y="-11"
     inkscape:window-maximized="1"
     inkscape:document-rotation="0" />
  <metadata
     id="metadata3793">
    <rdf:RDF>
      <cc:Work
         rdf:about="">
        <dc:format>image/svg+xml</dc:format>
        <dc:type
           rdf:resource="http://purl.org/dc/dcmitype/StillImage" />
        <dc:title />
      </cc:Work>
    </rdf:RDF>
  </metadata>
  <g
     inkscape:label="Capa 1"
     inkscape:groupmode="layer"
     id="capa1"
     transform="translate(0,-315.36218)">
    <rect
       style="fill:#000000;fill-opacity:1;stroke:#000000;stroke-width:1.99534392000000000;stroke-linecap:round;stroke-linejoin:round;stroke-miterlimit:4;stroke-opacity:1;stroke-dasharray:none"
       id="rect3956"
       width="1022.0047"
       height="735.00464"
       x="0.99767196"
       y="316.35986" />
    <g
       id="g875"
       transform="translate(-5.2970494,6.8279992)">
      <g
         style="fill:#ffffff"
         id="g3398"
         transform="matrix(2.3190013,0,0,2.3190013,-184.8446,-8569.0741)">
        <path
           style="fill:#ffffff"
           d="m 152.26143,3881.345 -2.96434,10.5898 h 6.08491 z m -18.64743,55.0968 h -8.51278 l 24.88725,-71.052 h 4.84253 l 24.99552,71.052 H 171.16 l -12.72,-36.68 h -12.06618 z"
           id="path3830"
           inkscape:connector-curvature="0"
           sodipodi:nodetypes="ccccccccccccc" />
        <path
           style="fill:#ffffff"
           d="m 200.35509,3881.0428 -9.76309,55.399 h -8.12584 l 12.68427,-71.218 h 6.40857 l 10.93822,20.6703 10.87678,-20.6703 6.373,0.083 12.681,71.135 h -8.164 l -9.76,-55.399 -11.98051,23.2967 z"
           id="path3832"
           inkscape:connector-curvature="0"
           sodipodi:nodetypes="ccccccccccccc" />
        <path
           style="fill:#ffffff"
           d="M 256.51053,3928.4298 H 274.75 v 8.012 h -26.322 v -71.093 h 23.75188 l -0.0433,8.099 -15.62429,-4e-4 v 11.8314 h 15.64569 v 8.007 h -15.60241 z"
           id="path3834"
           inkscape:connector-curvature="0"
           sodipodi:nodetypes="ccccccccccccc" />
        <path
           style="fill:#ffffff"
           d="m 312.69515,3936.1401 c -4.05506,-3.942 -7.2942,-7.9646 -10.50898,-12.2916 -1.6839,-2.2665 -3.28428,-4.6177 -4.57518,-7.1289 -2.42671,-4.7207 -4.25574,-9.7441 -5.89289,-14.7932 -0.90715,-2.7978 -1.26541,-5.8656 -2.16594,-8.5535 l -0.0232,42.7469 -8.04503,-0.014 -0.0187,-71.2028 c 0,0 22.33464,-4e-4 25.80377,0 3.13715,0.623 5.29488,0.8633 7.46892,2.298 1.94227,1.2819 3.74974,3.129 4.51132,5.328 1.47348,4.2545 1.45938,9.4368 -0.4831,13.4986 -1.34665,2.8159 -4.19068,4.9404 -7.07435,6.1351 -4.20341,1.7416 -9.07534,0.8759 -13.61513,0.9703 0.0276,5.7692 0.60707,8.5942 1.7692,12.7113 0.96979,3.4357 2.75885,6.588 4.28798,9.8139 1.50681,3.1787 2.94961,6.408 4.81121,9.3929 2.48779,3.989 4.64517,6.579 8.44419,11.2961 0,0 -3.60511,0.3162 -4.69409,-0.2072 z M 289.533,3884.8968 c 6.27335,0.066 13.86454,-0.016 18.62,0 1.77039,-1.0671 3.09902,-2.0287 3.77832,-3.6403 0.63125,-1.4976 0.63873,-3.3943 -0.0301,-4.8755 -0.69038,-1.5289 -1.55641,-2.6657 -3.75463,-3.3512 -3.61973,0.064 -18.61359,0 -18.61359,0 z"
           id="path3836"
           inkscape:connector-curvature="0"
           sodipodi:nodetypes="caaacccccaaaacaaacccccaaccc" />
        <path
           style="fill:#ffffff"
           d="m 327.06408,3936.4418 v -71.064 H 335.22 v 71.064 z"
           id="path3838"
           inkscape:connector-curvature="0"
           sodipodi:nodetypes="ccccc" />
        <path
           style="fill:#ffffff"
           d="m 376.56896,3867.0593 c 0.16085,3.608 0.26803,4.9521 0.47843,9.5371 -2.34655,-1.2235 -3.49384,-2.5027 -5.53821,-2.9292 -2.16061,-0.4508 -4.53482,-0.2744 -6.60269,0.4972 -1.99677,0.7451 -3.72853,2.2097 -5.13184,3.8137 -1.76168,2.0137 -2.86973,4.5477 -3.88895,7.0215 -1.1534,2.7994 -1.95864,5.7562 -2.4738,8.7398 -0.60435,3.5002 -0.81013,7.0822 -0.70411,10.6326 0.11375,3.809 0.38912,7.6774 1.43477,11.3419 0.57262,2.0068 1.46546,3.9458 2.61035,5.6906 1.03746,1.5811 2.0531,3.2982 3.78887,4.2225 2.6083,1.3889 5.59373,2.6614 8.58823,2.6365 3.20327,-0.027 6.66144,-1.2307 9.13884,-2.9726 l 0.0893,9.2885 c -0.82296,0.1188 -3.79105,1.4658 -5.78858,1.6908 -2.96133,0.3335 -6.03468,0.1942 -8.92414,-0.5351 -3.04896,-0.7695 -6.10766,-1.9994 -8.55698,-3.9715 -3.09106,-2.4888 -5.40043,-5.9442 -7.20098,-9.4807 -1.30323,-2.5597 -1.97597,-5.4244 -2.4829,-8.2517 -0.73502,-4.0993 -0.96913,-8.3092 -0.78101,-12.4697 0.26742,-5.9143 0.8282,-11.939 2.70544,-17.5538 1.34553,-4.0245 3.23713,-8.0129 6.018,-11.2181 2.24336,-2.5857 5.11145,-4.7734 8.27433,-6.0829 3.14149,-1.3006 6.70431,-1.9074 10.08398,-1.5355 1.72867,0.1902 4.09425,1.3966 4.86366,1.8881 z"
           id="path3840"
           inkscape:connector-curvature="0"
           sodipodi:nodetypes="ccaaaaaaaasaccaaaaaaaaaacc" />
        <path
           style="fill:#ffffff"
           d="m 446.66156,3884.3752 -0.0938,52.0666 H 438.471 l 0.07,-71.175 h 8.03956 l 25.48429,51.5894 0.27513,-51.5894 h 8.11402 l -0.0206,71.175 h -8.05076 z"
           id="path3844"
           inkscape:connector-curvature="0"
           sodipodi:nodetypes="ccccccccccc" />
        <path
           style="fill:#ffffff"
           d="m 408.03121,3881.345 -2.96434,10.5898 h 6.08491 z m -18.64743,55.0968 H 380.871 l 24.88725,-71.052 h 4.84253 l 24.99552,71.052 h -8.66652 l -12.72,-36.68 H 402.1436 Z"
           id="path3830-82"
           inkscape:connector-curvature="0"
           sodipodi:nodetypes="ccccccccccccc" />
      </g>
      <g
         style="fill:#ffffff"
         id="g3421"
         transform="matrix(2.1363044,0,0,2.1363044,124.95394,-7833.319)">
        <path
           style="fill:#ffffff"
           d="m 81.286,3968.3488 h -21.18 v 5.545 h 21.18 z m -21.18,52.703 h -8.043 v -71.063 h 8.043 v 10.545 h 21.18 v -10.545 h 8.043 v 71.063 h -8.043 v -39.252 h -21.18 z"
           id="path3006"
           inkscape:connector-curvature="0"
           sodipodi:nodetypes="cccccscccccccccccs" />
        <path
           style="fill:#ffffff"
           d="m 121.511,4010.5428 v 10.6 H 111 v -10.6 z m -4.78328,-43.0757 c -1.9945,-0.1198 -4.07717,0.2299 -5.9032,1.0411 -1.91966,0.8527 -3.62191,2.2623 -4.97228,3.8713 -1.26109,1.5026 -2.25929,3.3023 -2.75514,5.2003 -0.47878,1.8326 -0.39769,3.8048 -0.13569,5.6807 0.20738,1.4848 0.61573,2.9796 1.33524,4.2949 0.70458,1.288 1.75814,2.3731 2.83641,3.3694 0.96447,0.8912 2.01212,1.7413 3.20452,2.2914 1.30385,0.6015 2.75232,0.8899 4.18043,1.0394 1.47053,0.154 2.97832,0.1093 4.43298,-0.1555 1.23961,-0.2257 2.48387,-0.5895 3.58196,-1.2074 1.60483,-0.903 3.10299,-2.0989 4.22536,-3.5588 1.17952,-1.5342 2.08434,-3.3568 2.47302,-5.2527 0.49559,-2.4171 0.40503,-5.0224 -0.26332,-7.3976 -0.46038,-1.6362 -1.41722,-3.1347 -2.5026,-4.4427 -0.94297,-1.1364 -2.09418,-2.1454 -3.39254,-2.8489 -1.94334,-1.0529 -4.1389,-1.7923 -6.34515,-1.9249 z m 0.14924,-8.3986 c 3.34235,0.1035 6.73709,0.9898 9.70999,2.5208 2.64596,1.3626 5.00613,3.3926 6.84554,5.7323 1.82118,2.3166 3.23798,5.0581 3.91511,7.9259 0.858,3.6339 0.82398,7.5475 0.0552,11.2013 -0.49088,2.3328 -1.59714,4.5439 -2.91432,6.5309 -1.37185,2.0694 -3.12905,3.9127 -5.08311,5.4444 -1.67266,1.3112 -3.54977,2.4363 -5.56471,3.1122 -2.79293,0.937 -5.80957,1.2901 -8.75437,1.2104 -2.47236,-0.067 -4.99048,-0.4869 -7.28416,-1.4121 -2.12679,-0.8579 -4.04574,-2.2341 -5.77225,-3.7436 -1.67042,-1.4604 -3.154686,-3.1724 -4.335394,-5.051 -1.163984,-1.8519 -2.201556,-3.8662 -2.633378,-6.0105 -0.839425,-4.1684 -1.006418,-8.6767 0.19764,-12.7548 0.876458,-2.9685 2.815875,-5.6056 4.922102,-7.8736 1.87212,-2.0159 4.13561,-3.7774 6.65613,-4.88 3.12361,-1.3664 6.63229,-2.0581 10.04004,-1.9526 z"
           id="path3008"
           inkscape:connector-curvature="0"
           sodipodi:nodetypes="cccccaaaaaaaaaaaaaaaaacaaaaaaaaaaaaaaaac" />
        <path
           style="fill:#ffffff"
           d="m 255.03442,4010.5428 v 10.6 h -10.511 v -10.6 z m -4.78328,-43.0757 c -1.9945,-0.1198 -4.07717,0.2299 -5.9032,1.0411 -1.91966,0.8527 -3.62191,2.2623 -4.97228,3.8713 -1.26109,1.5026 -2.25929,3.3023 -2.75514,5.2003 -0.47878,1.8326 -0.39769,3.8048 -0.13569,5.6807 0.20738,1.4848 0.61573,2.9796 1.33524,4.2949 0.70458,1.288 1.75814,2.3731 2.83641,3.3694 0.96447,0.8912 2.01212,1.7413 3.20452,2.2914 1.30385,0.6015 2.75232,0.8899 4.18043,1.0394 1.47053,0.154 2.97832,0.1093 4.43298,-0.1555 1.23961,-0.2257 2.48387,-0.5895 3.58196,-1.2074 1.60483,-0.903 3.10299,-2.0989 4.22536,-3.5588 1.17952,-1.5342 2.08434,-3.3568 2.47302,-5.2527 0.49559,-2.4171 0.40503,-5.0224 -0.26332,-7.3976 -0.46038,-1.6362 -1.41722,-3.1347 -2.5026,-4.4427 -0.94297,-1.1364 -2.09418,-2.1454 -3.39254,-2.8489 -1.94334,-1.0529 -4.1389,-1.7923 -6.34515,-1.9249 z m 0.14924,-8.3986 c 3.34235,0.1035 6.73709,0.9898 9.70999,2.5208 2.64596,1.3626 5.00613,3.3926 6.84554,5.7323 1.82118,2.3166 3.23798,5.0581 3.91511,7.9259 0.858,3.6339 0.82398,7.5475 0.0552,11.2013 -0.49088,2.3328 -1.59714,4.5439 -2.91432,6.5309 -1.37185,2.0694 -3.12905,3.9127 -5.08311,5.4444 -1.67266,1.3112 -3.54977,2.4363 -5.56471,3.1122 -2.79293,0.937 -5.80957,1.2901 -8.75437,1.2104 -2.47236,-0.067 -4.99048,-0.4869 -7.28416,-1.4121 -2.12679,-0.8579 -4.04574,-2.2341 -5.77225,-3.7436 -1.67042,-1.4604 -3.15468,-3.1724 -4.33539,-5.051 -1.16399,-1.8519 -2.20156,-3.8662 -2.63338,-6.0105 -0.83943,-4.1684 -1.00642,-8.6767 0.19764,-12.7548 0.87646,-2.9685 2.81587,-5.6056 4.9221,-7.8736 1.87212,-2.0159 4.13561,-3.7774 6.65613,-4.88 3.12361,-1.3664 6.63229,-2.0581 10.04004,-1.9526 z"
           id="path3008-4"
           inkscape:connector-curvature="0"
           sodipodi:nodetypes="cccccaaaaaaaaaaaaaaaaacaaaaaaaaaaaaaaaac" />
        <path
           style="fill:#ffffff"
           d="m 174.12692,4020.8411 c -4.05506,-3.942 -7.2942,-7.9646 -10.50898,-12.2916 -1.6839,-2.2665 -3.28428,-4.6177 -4.57518,-7.1289 -2.42671,-4.7207 -4.25574,-9.7441 -5.89289,-14.7932 -0.90715,-2.7978 -1.26541,-5.8656 -2.16594,-8.5535 l -0.0232,42.7469 -8.04503,-0.014 -0.0187,-71.2028 c 0,0 22.33464,-4e-4 25.80377,0 3.13715,0.623 5.29488,0.8633 7.46892,2.298 1.94227,1.2819 3.74974,3.129 4.51132,5.328 1.47348,4.2545 1.45938,9.4368 -0.4831,13.4986 -1.34665,2.8159 -4.19068,4.9404 -7.07435,6.1351 -4.20341,1.7416 -9.07534,0.8759 -13.61513,0.9703 0.0276,5.7692 0.60707,8.5942 1.7692,12.7113 0.96979,3.4357 2.75885,6.588 4.28798,9.8139 1.50681,3.1787 2.94961,6.408 4.81121,9.3929 2.48779,3.989 4.64517,6.579 8.44419,11.2961 0,0 -3.60511,0.3162 -4.69409,-0.2072 z m -23.16215,-51.2433 c 6.27335,0.066 13.86454,-0.016 18.62,0 1.77039,-1.0671 3.09902,-2.0287 3.77832,-3.6403 0.63125,-1.4976 0.63873,-3.3943 -0.0301,-4.8755 -0.69038,-1.5289 -1.55641,-2.6657 -3.75463,-3.3512 -3.61973,0.064 -18.61359,0 -18.61359,0 z"
           id="path3836-4"
           inkscape:connector-curvature="0"
           sodipodi:nodetypes="caaacccccaaaacaaacccccaaccc" />
        <path
           style="fill:#ffffff"
           d="m 219.6018,4020.8411 c -4.05506,-3.942 -7.2942,-7.9646 -10.50898,-12.2916 -1.6839,-2.2665 -3.28428,-4.6177 -4.57518,-7.1289 -2.42671,-4.7207 -4.25574,-9.7441 -5.89289,-14.7932 -0.90715,-2.7978 -1.26541,-5.8656 -2.16594,-8.5535 l -0.0232,42.7469 -8.04503,-0.014 -0.0187,-71.2028 c 0,0 22.33464,-4e-4 25.80377,0 3.13715,0.623 5.29488,0.8633 7.46892,2.298 1.94227,1.2819 3.74974,3.129 4.51132,5.328 1.47348,4.2545 1.45938,9.4368 -0.4831,13.4986 -1.34665,2.8159 -4.19068,4.9404 -7.07435,6.1351 -4.20341,1.7416 -9.07534,0.8759 -13.61513,0.9703 0.0276,5.7692 0.60707,8.5942 1.7692,12.7113 0.96979,3.4357 2.75885,6.588 4.28798,9.8139 1.50681,3.1787 2.94961,6.408 4.81121,9.3929 2.48779,3.989 4.64517,6.579 8.44419,11.2961 0,0 -3.60511,0.3162 -4.69409,-0.2072 z m -23.16215,-51.2433 c 6.27335,0.066 13.86454,-0.016 18.62,0 1.77039,-1.0671 3.09902,-2.0287 3.77832,-3.6403 0.63125,-1.4976 0.63873,-3.3943 -0.0301,-4.8755 -0.69038,-1.5289 -1.55641,-2.6657 -3.75463,-3.3512 -3.61973,0.064 -18.61359,0 -18.61359,0 z"
           id="path3836-4-5"
           inkscape:connector-curvature="0"
           sodipodi:nodetypes="caaacccccaaaacaaacccccaaccc" />
        <path
           style="fill:#ffffff"
           d="m 307.60092,4020.8411 c -4.05506,-3.942 -7.2942,-7.9646 -10.50898,-12.2916 -1.6839,-2.2665 -3.28428,-4.6177 -4.57518,-7.1289 -2.42671,-4.7207 -4.25574,-9.7441 -5.89289,-14.7932 -0.90715,-2.7978 -1.26541,-5.8656 -2.16594,-8.5535 l -0.0232,42.7469 -8.04503,-0.014 -0.0187,-71.2028 c 0,0 22.33464,-4e-4 25.80377,0 3.13715,0.623 5.29488,0.8633 7.46892,2.298 1.94227,1.2819 3.74974,3.129 4.51132,5.328 1.47348,4.2545 1.45938,9.4368 -0.4831,13.4986 -1.34665,2.8159 -4.19068,4.9404 -7.07435,6.1351 -4.20341,1.7416 -9.07534,0.8759 -13.61513,0.9703 0.0276,5.7692 0.60707,8.5942 1.7692,12.7113 0.96979,3.4357 2.75885,6.588 4.28798,9.8139 1.50681,3.1787 2.94961,6.408 4.81121,9.3929 2.48779,3.989 4.64517,6.579 8.44419,11.2961 0,0 -3.60511,0.3162 -4.69409,-0.2072 z m -23.16215,-51.2433 c 6.27335,0.066 13.86454,-0.016 18.62,0 1.77039,-1.0671 3.09902,-2.0287 3.77832,-3.6403 0.63125,-1.4976 0.63873,-3.3943 -0.0301,-4.8755 -0.69038,-1.5289 -1.55641,-2.6657 -3.75463,-3.3512 -3.61973,0.064 -18.61359,0 -18.61359,0 z"
           id="path3836-4-5-5"
           inkscape:connector-curvature="0"
           sodipodi:nodetypes="caaacccccaaaacaaacccccaaccc" />
      </g>
      <g
         style="fill:#ffffff"
         id="g3429"
         transform="matrix(2.2271486,0,0,2.2271486,-488.49912,-7995.2549)">
        <path
           style="fill:#ffffff"
           sodipodi:nodetypes="caaaaaaaaaaaaaccaaaaaaaaaaaaaacc"
           d="m 356.22492,4009.5735 c 3.7295,2.9593 4.84003,2.7638 7.53482,3.1448 2.86474,0.4049 6.01153,0.2539 8.62279,-0.9919 3.26698,-1.5586 6.0454,-4.4122 7.7522,-7.6043 1.67724,-3.1368 2.0269,-6.9283 1.984,-10.4851 -0.0334,-2.77 -0.65923,-5.5761 -1.74163,-8.1261 -0.77617,-1.8285 -2.0708,-3.4049 -3.32406,-4.9461 -1.35552,-1.667 -2.90165,-3.1795 -4.50417,-4.6106 -1.53013,-1.3665 -3.27708,-2.471 -4.85879,-3.7774 -1.62431,-1.3416 -3.37834,-2.5696 -4.75196,-4.167 -1.60679,-1.8684 -3.39355,-3.834 -3.98693,-6.2258 -0.51161,-2.0622 -0.39216,-4.4379 0.52992,-6.3521 0.87981,-1.8265 2.63794,-3.2145 4.42418,-4.1734 1.64741,-0.8842 3.59375,-1.2198 5.46272,-1.2735 2.46391,-0.071 4.24757,0.084 7.28618,1.2627 l -1.76104,7.8397 c -2.44399,-1.3182 -2.88521,-1.7006 -4.50022,-1.8509 -0.8681,-0.081 -1.8417,0.039 -2.56106,0.5312 -0.42735,0.2926 -0.76383,0.7927 -0.84431,1.3044 -0.0987,0.6275 0.15924,1.3007 0.49438,1.8403 1.3082,2.1062 3.69247,3.311 5.58413,4.9138 2.13933,1.8128 4.4923,3.379 6.51848,5.3174 1.9883,1.9022 4.00043,3.8496 5.49597,6.1594 2.01625,3.1139 3.66713,6.5544 4.54491,10.1587 0.66452,2.7286 0.75971,5.6169 0.48073,8.4114 -0.43992,4.4066 -1.50293,8.8342 -3.36525,12.8521 -0.93886,2.0255 -2.30967,3.8638 -3.84768,5.4821 -1.64419,1.7299 -3.52884,3.3002 -5.64398,4.4058 -2.28081,1.1921 -4.82235,1.9562 -7.37484,2.2852 -3.09064,0.3982 -6.31637,0.3432 -9.33947,-0.4128 -2.95941,-0.7401 -4.24559,-0.5807 -8.25672,-3.947 z"
           id="path3018"
           inkscape:connector-curvature="0" />
        <path
           style="fill:#ffffff"
           sodipodi:nodetypes="ccccccccc"
           d="m 406.791,4021.1428 h -8.04522 l -0.0223,-63.092 h -16.1063 v -8.038 h 40.66284 l -2e-5,8.038 h -16.51108 z"
           id="path3020"
           inkscape:connector-curvature="0" />
        <path
           style="fill:#ffffff"
           sodipodi:nodetypes="cccccccccc"
           d="m 502.35386,3949.9908 9.81687,-1e-4 15.47404,23.3571 15.81302,-23.4401 9.67405,0.042 -21.41319,32.1998 v 38.9933 h -8.11059 l 10e-6,-39.0993 z"
           id="path3026"
           inkscape:connector-curvature="0" />
        <path
           style="fill:#ffffff"
           d="m 442.79342,4010.5428 v 10.6 h -10.511 v -10.6 z m -4.78328,-43.0757 c -1.9945,-0.1198 -4.07717,0.2299 -5.9032,1.0411 -1.91966,0.8527 -3.62191,2.2623 -4.97228,3.8713 -1.26109,1.5026 -2.25929,3.3023 -2.75514,5.2003 -0.47878,1.8326 -0.39769,3.8048 -0.13569,5.6807 0.20738,1.4848 0.61573,2.9796 1.33524,4.2949 0.70458,1.288 1.75814,2.3731 2.83641,3.3694 0.96447,0.8912 2.01212,1.7413 3.20452,2.2914 1.30385,0.6015 2.75232,0.8899 4.18043,1.0394 1.47053,0.154 2.97832,0.1093 4.43298,-0.1555 1.23961,-0.2257 2.48387,-0.5895 3.58196,-1.2074 1.60483,-0.903 3.10299,-2.0989 4.22536,-3.5588 1.17952,-1.5342 2.08434,-3.3568 2.47302,-5.2527 0.49559,-2.4171 0.40503,-5.0224 -0.26332,-7.3976 -0.46038,-1.6362 -1.41722,-3.1347 -2.5026,-4.4427 -0.94297,-1.1364 -2.09418,-2.1454 -3.39254,-2.8489 -1.94334,-1.0529 -4.1389,-1.7923 -6.34515,-1.9249 z m 0.14924,-8.3986 c 3.34235,0.1035 6.73709,0.9898 9.70999,2.5208 2.64596,1.3626 5.00613,3.3926 6.84554,5.7323 1.82118,2.3166 3.23798,5.0581 3.91511,7.9259 0.858,3.6339 0.82398,7.5475 0.0552,11.2013 -0.49088,2.3328 -1.59714,4.5439 -2.91432,6.5309 -1.37185,2.0694 -3.12905,3.9127 -5.08311,5.4444 -1.67266,1.3112 -3.54977,2.4363 -5.56471,3.1122 -2.79293,0.937 -5.80957,1.2901 -8.75437,1.2104 -2.47236,-0.067 -4.99048,-0.4869 -7.28416,-1.4121 -2.12679,-0.8579 -4.04574,-2.2341 -5.77225,-3.7436 -1.67042,-1.4604 -3.15468,-3.1724 -4.33539,-5.051 -1.16399,-1.8519 -2.20156,-3.8662 -2.63338,-6.0105 -0.83943,-4.1684 -1.00642,-8.6767 0.19764,-12.7548 0.87646,-2.9685 2.81587,-5.6056 4.9221,-7.8736 1.87212,-2.0159 4.13561,-3.7774 6.65613,-4.88 3.12361,-1.3664 6.63229,-2.0581 10.04004,-1.9526 z"
           id="path3008-4-9"
           inkscape:connector-curvature="0"
           sodipodi:nodetypes="cccccaaaaaaaaaaaaaaaaacaaaaaaaaaaaaaaaac" />
        <path
           style="fill:#ffffff"
           d="m 496.01792,4020.8411 c -4.05506,-3.942 -7.2942,-7.9646 -10.50898,-12.2916 -1.6839,-2.2665 -3.28428,-4.6177 -4.57518,-7.1289 -2.42671,-4.7207 -4.25574,-9.7441 -5.89289,-14.7932 -0.90715,-2.7978 -1.26541,-5.8656 -2.16594,-8.5535 l -0.0232,42.7469 -8.04503,-0.014 -0.0187,-71.2028 c 0,0 22.33464,-4e-4 25.80377,0 3.13715,0.623 5.29488,0.8633 7.46892,2.298 1.94227,1.2819 3.74974,3.129 4.51132,5.328 1.47348,4.2545 1.45938,9.4368 -0.4831,13.4986 -1.34665,2.8159 -4.19068,4.9404 -7.07435,6.1351 -4.20341,1.7416 -9.07534,0.8759 -13.61513,0.9703 0.0276,5.7692 0.60707,8.5942 1.7692,12.7113 0.96979,3.4357 2.75885,6.588 4.28798,9.8139 1.50681,3.1787 2.94961,6.408 4.81121,9.3929 2.48779,3.989 4.64517,6.579 8.44419,11.2961 0,0 -3.60511,0.3162 -4.69409,-0.2072 z m -23.16215,-51.2433 c 6.27335,0.066 13.86454,-0.016 18.62,0 1.77039,-1.0671 3.09902,-2.0287 3.77832,-3.6403 0.63125,-1.4976 0.63873,-3.3943 -0.0301,-4.8755 -0.69038,-1.5289 -1.55641,-2.6657 -3.75463,-3.3512 -3.61973,0.064 -18.61359,0 -18.61359,0 z"
           id="path3836-4-5-1"
           inkscape:connector-curvature="0"
           sodipodi:nodetypes="caaacccccaaaacaaacccccaaccc" />
      </g>
    </g>
  </g>
</svg>
